<svg width="170" height="172" viewBox="0 0 170 172" fill="none" xmlns="http://www.w3.org/2000/svg">
<path fill-rule="evenodd" clip-rule="evenodd" d="M0.00192305 81.8901C0.00192305 92.2515 -0.174691 97.5205 2.85719 107.764C5.80076 117.743 10.3927 127.309 16.427 135.522C21.961 143.057 29.8203 151.064 37.3558 156.274C45.9805 162.25 48.7474 163.398 57.8136 166.989C71.5895 172.464 95.4913 174.995 108.708 166.429C117.009 161.043 121.866 149.416 121.866 137.582V129.517C121.866 126.544 121.512 125.072 121.512 122.158C120.1 122.482 109.503 129.458 104.705 131.607C85.0711 140.408 64.9076 137.141 49.4833 121.717C40.7998 113.033 34.7066 100.317 34.7066 87.5123C34.7066 77.6808 35.3836 72.0586 39.3574 63.4634C41.9772 57.7823 45.3918 53.5435 49.66 49.2459C52.8979 46.008 52.5741 46.3612 56.283 43.6237C58.7261 41.8281 61.3459 40.5329 64.0834 39.1789C78.6835 31.9966 94.1373 33.9394 108.208 40.9451C110.062 41.8576 111.122 42.5346 112.829 43.6826C114.154 44.5656 115.89 45.8019 117.038 46.8322C118.333 47.9802 119.452 49.2459 120.718 50.5117C126.87 56.6048 131.109 66.7013 132.61 75.3848C135.583 92.487 131.933 153.743 134.759 162.161C137.525 170.403 146.827 168.961 156.57 169.756C159.808 170.021 164.812 168.843 167.108 165.694C169.051 163.044 169.934 157.893 169.404 153.036C168.727 147.12 168.727 101.112 168.757 94.8713C168.757 92.1632 168.404 90.7502 168.404 87.8655C168.462 71.6759 166.049 60.4315 158.719 45.7431C152.597 33.4389 141.941 21.753 130.873 14.4235C118.539 6.24037 102.114 0 86.1308 0C70.1472 0 60.8749 2.11937 48.3353 8.38917C43.8022 10.6557 39.7107 13.1872 35.7957 16.1308C34.7949 16.8961 34.0002 17.4554 33.0288 18.2501C31.9691 19.1038 31.1743 19.8691 30.2029 20.6639C17.9283 30.5248 7.00762 48.4806 2.85719 64.3759C1.59145 69.0267 0.00192305 76.2384 0.00192305 81.8901Z" fill="#E8FAFC"/>
<path fill-rule="evenodd" clip-rule="evenodd" d="M168.725 30.4366C168.725 25.6386 168.725 20.87 168.725 16.072C168.725 9.50781 168.725 11.8921 162.161 4.44487C159.159 1.03033 158.806 1.73679 154.037 1.73679C149.151 1.73679 144.235 1.73679 139.349 1.73679C140.349 3.23801 151.535 14.0703 153.772 16.3663C155.067 17.6615 156.127 18.3385 157.451 19.6926C159.188 21.4293 167.195 30.0539 168.725 30.466V30.4366Z" fill="#E8FAFC"/>
</svg>
