<svg width="193" height="48" viewBox="0 0 193 48" fill="none" xmlns="http://www.w3.org/2000/svg">
<g id=" LOGO OF ACIAN 2" clip-path="url(#clip0_1548_22121)">
<g id="Layer 1">
<g id="Group">
<path id="Vector" fill-rule="evenodd" clip-rule="evenodd" d="M0.000390886 28.4446C0.000390886 30.5507 -0.0355082 31.6216 0.580761 33.7038C1.17908 35.7321 2.11246 37.6766 3.33901 39.346C4.46386 40.8777 6.06137 42.5051 7.59307 43.5641C9.34614 44.7787 9.90857 45.012 11.7514 45.742C14.5515 46.8549 19.4099 47.3694 22.0963 45.6283C23.7836 44.5334 24.7708 42.17 24.7708 39.7648V38.1254C24.7708 37.5211 24.699 37.2219 24.699 36.6296C24.4118 36.6954 22.2579 38.1134 21.2826 38.5502C17.2918 40.3392 13.1933 39.675 10.0581 36.5398C8.2931 34.7748 7.05458 32.1901 7.05458 29.5874C7.05458 27.589 7.19219 26.4462 7.99993 24.6991C8.53243 23.5443 9.22648 22.6828 10.094 21.8092C10.7522 21.1511 10.6864 21.2229 11.4403 20.6664C11.9369 20.3014 12.4694 20.0382 13.0258 19.763C15.9935 18.3031 19.1347 18.6979 21.9946 20.1219C22.3716 20.3074 22.587 20.445 22.934 20.6784C23.2032 20.8579 23.5562 21.1092 23.7896 21.3186C24.0528 21.5519 24.2802 21.8092 24.5375 22.0665C25.788 23.305 26.6495 25.3572 26.9547 27.1223C27.559 30.5985 26.8171 43.0496 27.3915 44.7607C27.9539 46.436 29.8446 46.1429 31.825 46.3044C32.4832 46.3583 33.5003 46.1189 33.967 45.4787C34.3619 44.9402 34.5414 43.8932 34.4337 42.906C34.2961 41.7033 34.2961 32.3516 34.3021 31.0832C34.3021 30.5327 34.2303 30.2455 34.2303 29.6592C34.2422 26.3684 33.7516 24.0828 32.2618 21.0972C31.0173 18.5962 28.8514 16.2209 26.6017 14.7311C24.0947 13.0678 20.7561 11.7993 17.5072 11.7993C14.2584 11.7993 12.3736 12.2301 9.8248 13.5045C8.90339 13.9652 8.07172 14.4798 7.27596 15.0781C7.07253 15.2337 6.91098 15.3474 6.71354 15.5089C6.49814 15.6824 6.3366 15.838 6.13915 15.9995C3.64416 18.0039 1.42439 21.6536 0.580761 24.8846C0.323484 25.8299 0.000390886 27.2958 0.000390886 28.4446Z" fill="#FF817F"/>
<path id="Vector_2" fill-rule="evenodd" clip-rule="evenodd" d="M86.1641 28.6599V29.9403C86.1641 33.5841 88.1146 37.9039 90.4121 40.4887L91.4472 41.5896C92.8832 43.0256 94.5226 44.2521 96.4073 45.0957C96.6646 45.2094 96.8381 45.3111 97.1373 45.4308C99.6981 46.442 101.415 46.7291 104.305 46.7291C106.351 46.7291 108.266 46.0171 109.469 44.4914C110.318 43.4145 110.665 42.152 110.875 40.6263C111.09 39.0587 110.94 38.8553 110.929 37.6108C110.929 37.2039 110.857 37.0723 110.857 36.6175C110.581 36.6834 109.905 37.1441 109.636 37.3176C108.368 38.1074 107.267 38.7655 105.711 39.1544C104.748 39.3937 104.197 39.4835 103.246 39.5373C102.863 39.5613 102.672 39.4775 102.325 39.4655C100.404 39.3878 98.304 38.3706 96.9338 37.174C96.2039 36.5338 95.6474 36.0132 95.079 35.1816C93.314 32.5909 92.596 28.6719 93.8046 25.6085C94.1875 24.6392 94.4149 24.0648 95.097 23.1254C97.8493 19.3141 102.546 17.7884 107.141 19.6312C108.075 20.0022 109.241 20.6005 109.953 21.3006C110.103 21.4501 110.145 21.504 110.324 21.6416C110.599 21.857 110.498 21.8091 110.701 22.0485C113.633 25.405 113.352 28.4624 113.352 32.9199C113.352 34.2542 113.274 40.8955 113.352 41.8828C113.429 42.852 113.352 44.0247 113.567 44.7248C114.106 46.424 115.984 46.1248 117.983 46.2864C118.3 46.3103 119.042 46.1727 119.263 46.0949C121.124 45.4128 120.52 43.0794 120.532 41.458C120.532 40.5066 120.591 37.5749 120.502 37.0065C120.196 35.0021 120.855 29.5574 120.029 25.5247C119.861 24.699 119.628 23.9691 119.365 23.1972C119.173 22.6288 118.719 21.5698 118.425 21.0792C117.684 19.8466 117.103 18.6859 115.996 17.5311L114.112 15.7182C113.962 15.5806 113.842 15.4969 113.681 15.3652C112.466 14.378 110.258 13.2113 108.787 12.7207C103.898 11.0872 99.0399 11.5539 94.6662 14.2344L92.8772 15.5088C91.5848 16.5559 90.2685 17.932 89.3531 19.3141C88.2462 20.9775 87.8992 21.6954 87.2111 23.4366C86.6786 24.7828 86.1641 27.1342 86.1641 28.6539V28.6599Z" fill="#FF817F"/>
<path id="Vector_3" fill-rule="evenodd" clip-rule="evenodd" d="M158.531 29.228C158.531 29.8443 158.609 30.64 158.674 31.2204C158.938 33.5718 159.745 35.6659 160.834 37.6703L162.103 39.6089C162.264 39.8183 162.402 39.9918 162.575 40.2012L163.605 41.3799C165.232 42.9894 166.518 43.9646 168.595 44.9997C169.624 45.5143 170.509 45.8194 171.694 46.1724C173.943 46.8425 177.486 47.0699 179.735 46.1545C182.374 45.0775 183.373 42.2594 183.373 39.549C183.373 38.9806 183.391 37.3771 183.295 36.8386C183.235 36.4916 183.032 36.725 182.434 37.1139L180.471 38.2806C180.28 38.3943 180.148 38.4242 179.933 38.5259C176.277 40.273 172.053 39.7285 169.121 37.0002C168.271 36.2104 168.056 36.0309 167.362 34.9898C163.934 29.8563 165.627 22.6525 171.538 19.8105C175.84 17.7403 181.105 19.254 183.75 22.8021C184.594 23.9329 185.228 25.3868 185.539 27.0621C186.173 30.4725 185.437 43.121 185.964 44.7065C186.227 45.5023 186.736 45.8912 187.567 46.0946C188.423 46.2981 188.997 46.1964 189.703 46.2323C190.014 46.2502 190.05 46.3041 190.415 46.31C192.647 46.3459 193.156 45.0835 192.982 42.9595C192.91 42.0919 192.982 40.8773 192.982 39.9738C192.982 39.4533 192.91 39.1362 192.91 38.5498C192.91 36.3181 193.006 33.0214 192.844 31.0768C192.767 30.1195 192.952 29.0605 192.809 28.1211C192.737 27.6544 192.731 27.2356 192.665 26.7689C192.593 26.2663 192.509 25.8535 192.432 25.4407C191.977 23.1431 190.571 20.0857 189.045 18.2967C187.699 16.7112 186.819 15.8316 185.066 14.6589C181.369 12.1879 176.223 11.0511 171.574 12.3075C169.528 12.864 167.518 13.8452 165.836 15.1077C164.969 15.7658 164.328 16.3582 163.575 17.112C163.21 17.477 162.91 17.848 162.581 18.2548C160.505 20.7977 159.177 23.897 158.716 27.1937L158.543 29.228H158.531Z" fill="#FF817F"/>
<path id="Vector_4" fill-rule="evenodd" clip-rule="evenodd" d="M131.492 14.0728V13.1035C131.301 12.4035 130.744 12.1342 129.943 12.1522H126.048C124.678 12.2958 128.339 15.2515 128.77 15.6583C128.997 15.8857 129.153 15.9635 129.374 16.1909L130.015 16.7593C130.134 16.861 130.182 16.9388 130.302 17.0405L133.748 19.9244C133.951 20.1039 134.149 20.2774 134.364 20.4449C134.64 20.6603 134.765 20.7859 135.046 20.9714C136.339 20.2893 137.41 19.7628 139.031 19.7628C139.564 19.7628 140.389 19.8885 140.856 20.0021C141.436 20.1457 141.939 20.3252 142.424 20.5646C144.338 21.5159 145.625 23.0955 146.301 25.0879C146.714 26.3084 146.648 27.3914 146.648 29.0128V45.8735C147.037 45.9752 147.719 46.7291 149.633 46.7291C150.806 46.7291 151.841 46.7889 152.972 46.4359C153.289 46.3402 154.402 45.9991 154.402 45.6581V27.8701C154.402 24.3101 153.6 21.833 151.883 19.003L151.357 18.2491C151.183 18.0157 150.986 17.7465 150.794 17.5311C150.142 16.8011 149.657 16.2567 148.868 15.6165C146.63 13.7976 143.752 12.4873 140.82 12.206C140.473 12.1701 140.006 12.1761 139.612 12.1283C138.247 11.9727 136.291 12.3137 135.172 12.6189C133.616 13.0497 131.558 14.0429 131.486 14.0549L131.492 14.0728Z" fill="#FF817F"/>
<path id="Vector_5" fill-rule="evenodd" clip-rule="evenodd" d="M38.4248 29.2281C38.4248 37.5986 42.1523 43.5339 48.9373 46.4657C51.7314 47.6743 54.6213 47.9376 57.9958 47.9376C61.5618 47.9376 65.3253 46.711 68.257 44.7485C71.476 42.5946 70.7042 36.7071 63.0995 40.2312C59.4737 41.9065 55.5188 42.104 51.7972 40.6201C51.0793 40.3329 50.475 39.9799 49.8587 39.5731C48.0518 38.3764 46.7714 36.5695 45.9756 34.5651C44.6294 31.1726 45.8679 25.3271 47.4534 21.9884C47.5911 21.7072 47.7047 21.5517 47.8364 21.3004L45.826 18.4045C45.6346 18.1532 45.5149 17.9617 45.3174 17.7045L43.7139 15.6104C43.5584 15.724 42.99 16.5138 42.8464 16.7352C40.3454 19.6969 38.4428 25.2553 38.4428 29.2281H38.4248Z" fill="#FF817F"/>
<path id="Vector_6" fill-rule="evenodd" clip-rule="evenodd" d="M74.9224 17.3456V42.8879C74.9224 45.8555 78.2789 48.2668 80.9534 45.5743C81.444 45.0777 81.9646 44.0666 81.9646 43.1033V16.9926C81.9646 15.4848 80.4329 13.5044 78.6918 13.5044H78.3388C76.4241 13.5044 74.9224 15.3951 74.9224 17.3456Z" fill="#FF817F"/>
<path id="Vector_7" fill-rule="evenodd" clip-rule="evenodd" d="M124.589 45.8073C126.037 46.7765 128.538 46.7586 130.309 46.4056C130.685 46.3278 130.973 46.262 131.284 46.1722C131.613 46.0765 131.96 45.9509 132.271 45.8791V27.9474C132.271 26.3499 132.941 24.8122 133.498 23.5079C133.635 23.1848 133.887 22.8258 134.06 22.5027C133.809 22.1258 130.303 19.3316 129.489 18.6077C128.077 17.3512 126.988 16.2563 125.684 14.9459C125.325 14.5929 125.133 14.581 125.097 15.0117L124.589 45.8132V45.8073Z" fill="#FF817F"/>
<path id="Vector_8" fill-rule="evenodd" clip-rule="evenodd" d="M45.1853 14.713C45.2631 15.0361 46.3401 16.3464 46.6093 16.7054C46.7828 16.9388 46.9324 17.1661 47.1179 17.4055C47.782 18.285 48.4162 19.2064 49.0265 20.1218C49.553 19.7688 49.9778 19.356 50.5702 19.0329C51.1506 18.7098 51.6711 18.4047 52.3412 18.1713C56.1226 16.855 59.7664 17.0764 63.3264 18.8414C71.0866 22.6826 72.8755 13.2471 60.4604 11.177C59.4493 11.0094 57.4568 10.7881 56.4756 10.9257C55.8174 11.0154 55.1413 10.9616 54.4712 11.0573C51.5215 11.4701 48.9787 12.2001 46.4777 13.8036C46.005 14.1087 45.6281 14.4139 45.1853 14.713Z" fill="#FF817F"/>
<path id="Vector_9" fill-rule="evenodd" clip-rule="evenodd" d="M78.0577 11.4403C79.9364 11.4403 81.2527 11.0634 82.4853 9.82483C83.9033 8.40083 84.1725 7.27 84.1725 5.25367C84.1725 3.47067 82.8682 1.79538 81.6416 0.951748C81.3545 0.754303 81.0613 0.634639 80.7561 0.485059C79.38 -0.197026 77.5671 -0.113261 76.1969 0.485059C75.7721 0.670538 75.2097 0.981664 74.8627 1.28681C74.4678 1.63982 74.5516 1.46032 74.1746 1.95094C73.0797 3.36298 72.9899 3.79975 72.7386 5.49898C72.6369 6.17508 72.96 7.35377 73.1276 7.82644C73.8156 9.73508 76.0174 11.4463 78.0457 11.4463L78.0577 11.4403Z" fill="#FF817F"/>
<path id="Vector_10" fill-rule="evenodd" clip-rule="evenodd" d="M34.295 17.9858C34.295 17.0106 34.295 16.0413 34.295 15.066C34.295 13.7318 34.295 14.2164 32.9607 12.7026C32.3504 12.0086 32.2786 12.1522 31.3093 12.1522C30.3161 12.1522 29.3169 12.1522 28.3237 12.1522C28.5272 12.4573 30.8008 14.6592 31.2555 15.1258C31.5188 15.3891 31.7342 15.5267 32.0034 15.8019C32.3564 16.155 33.9838 17.908 34.295 17.9918V17.9858Z" fill="#78AAC3"/>
</g>
</g>
</g>
<defs>
<clipPath id="clip0_1548_22121">
<rect width="193" height="47.9434" fill="white"/>
</clipPath>
</defs>
</svg>
